<svg width="24" height="24" viewBox="0 0 24 24" fill="none" xmlns="http://www.w3.org/2000/svg">
<g clip-path="url(#clip0_41_2115)">
<path d="M11.9995 24C18.6266 24 23.999 18.6276 23.999 12.0005C23.999 5.37333 18.6266 0.000976562 11.9995 0.000976562C5.37236 0.000976562 0 5.37333 0 12.0005C0 18.6276 5.37236 24 11.9995 24Z" fill="white"/>
<path d="M23.3142 7.9989H15.9206C16.2418 10.5623 16.2436 13.3868 15.9268 15.9534H23.33C23.7621 14.7152 23.9997 13.3855 23.9997 12C23.9999 10.5964 23.7568 9.25038 23.3142 7.9989Z" fill="#2B479D"/>
<path d="M13.0778 23.9502C17.8328 23.5266 21.7888 20.3296 23.3186 15.9876C23.3226 15.976 23.326 15.9646 23.3301 15.9535H15.9269C15.4609 19.7267 14.9221 22.9392 13.0778 23.9502Z" fill="#E63026"/>
<path d="M16.5456 15.9536H0.670898C0.674901 15.9648 0.67865 15.9762 0.682451 15.9877C2.32675 20.6543 6.77233 24 12.0009 24C12.3643 24 12.7235 23.9822 13.0788 23.9504C14.9233 22.9393 16.0796 19.7268 16.5456 15.9536Z" fill="#E73B36"/>
<path d="M0 12C0 13.3857 0.237983 14.7152 0.669769 15.9534H16.5444C16.8616 13.3866 16.8593 10.5623 16.5386 7.9989H0.685729C0.243101 9.25043 0 10.5965 0 12Z" fill="#3757A6"/>
<path d="M15.9212 7.99879H23.3147C23.3135 7.99499 23.3124 7.9918 23.3109 7.98836C21.7752 3.65799 17.8246 0.471991 13.0781 0.0490723C14.9151 1.05593 15.4517 4.24593 15.9212 7.99879Z" fill="#EFECEC"/>
<path d="M0.689286 7.98853C0.688171 7.99193 0.687006 7.99517 0.685486 7.99897H16.5384C16.0685 4.24606 14.9142 1.05611 13.0774 0.0492484C12.7222 0.0177842 12.3629 5.77496e-10 11.9996 5.77496e-10C6.77937 -5.06665e-05 2.34017 3.3339 0.689286 7.98853Z" fill="#EFEFEF"/>
</g>
<defs>
<clipPath id="clip0_41_2115">
<rect width="24" height="24" fill="white"/>
</clipPath>
</defs>
</svg>
