<svg width="24" height="24" viewBox="0 0 24 24" fill="none" xmlns="http://www.w3.org/2000/svg">
<g clip-path="url(#clip0_41_2068)">
<path d="M5.12933 21.8369C6.18696 22.577 7.36857 23.1499 8.63803 23.5196V18.3287L5.12933 21.8369Z" fill="#29337A"/>
<path d="M0.532898 15.5432C0.929672 16.8284 1.53768 18.0208 2.31471 19.0814L5.85295 15.5432H0.532898Z" fill="#29337A"/>
<path d="M2.11349 5.20056C1.33965 6.32375 0.751554 7.5849 0.394958 8.9404H5.85353L2.11349 5.20056Z" fill="#29337A"/>
<path d="M8.63922 0.480347C7.25661 0.882998 5.97615 1.52551 4.8486 2.36354L8.63922 6.15415V0.480347Z" fill="#29337A"/>
<path d="M4.85449 21.6391C4.94579 21.7071 5.03963 21.7719 5.13281 21.8371L8.6415 18.3288V23.5196C8.97859 23.6182 9.32095 23.7032 9.66924 23.7716V16.8245L4.85449 21.6391Z" fill="white"/>
<path d="M0.267303 14.5156C0.341784 14.8639 0.429692 15.2068 0.533711 15.5434H5.85381L2.31557 19.0816C2.70039 19.6074 3.12711 20.1008 3.59076 20.557L9.63211 14.5156H0.267303Z" fill="white"/>
<path d="M2.31246 4.92224C2.24538 5.01395 2.17926 5.10697 2.11446 5.20096L5.8545 8.9408H0.39593C0.307465 9.27748 0.235264 9.62065 0.175781 9.96853H7.35916L2.31246 4.92224Z" fill="white"/>
<path d="M8.64105 0.480534V6.15434L4.85039 2.36393C4.32781 2.75255 3.83933 3.18398 3.38672 3.65103L9.66858 9.93289V0.228516C9.3205 0.297322 8.97814 0.382594 8.64105 0.480534Z" fill="white"/>
<path d="M8.64052 15.5068L8.60449 15.5431H8.64052V15.5068Z" fill="#D32030"/>
<path d="M9.63211 14.5153H9.66808V14.4791L9.63211 14.5153Z" fill="#D32030"/>
<path d="M14.2502 9.9679H14.2155V10.0028L14.2502 9.9679Z" fill="#D32030"/>
<path d="M9.66803 9.9325V9.96796H9.7035L9.66803 9.9325Z" fill="#D32030"/>
<path d="M8.67506 8.9404L8.63965 8.90479V8.9404H8.67506Z" fill="#D32030"/>
<path d="M15.2403 20.8629V23.5529C16.5263 23.1929 17.7253 22.6254 18.7977 21.8861L15.883 18.9714C15.6501 19.7898 15.5649 20.2128 15.2403 20.8629Z" fill="#252F6C"/>
<path d="M21.6347 19.1514C22.436 18.0734 23.0605 16.8567 23.4661 15.5432H18.0265L21.6347 19.1514Z" fill="#252F6C"/>
<path d="M15.8983 5.49591L19.0801 2.31406C17.937 1.47694 16.6403 0.838992 15.2402 0.446777V3.21006C15.6145 3.95943 15.6459 4.52882 15.8983 5.49591Z" fill="#252F6C"/>
<path d="M23.6047 8.94038C23.2405 7.55625 22.6348 6.27144 21.8365 5.13062L18.0264 8.94038H23.6047Z" fill="#252F6C"/>
<path d="M14.2143 22.4101V23.7923C14.5625 23.7275 14.9051 23.6471 15.242 23.5528V20.8628C14.9392 21.4695 14.5965 21.9961 14.2143 22.4101Z" fill="#E7E7E7"/>
<path d="M16.6018 14.7187L17.4264 15.5434L21.3736 19.4905C21.4632 19.3783 21.5522 19.2665 21.6379 19.1515L18.0297 15.5434H23.4694C23.573 15.207 23.6611 14.8639 23.7354 14.5156H16.679C16.6674 14.6613 16.6157 14.574 16.6018 14.7187Z" fill="#E7E7E7"/>
<path d="M15.7114 18.7976L18.7996 21.8862C19.3133 21.5324 19.797 21.1387 20.2484 20.7113L16.1862 16.6489C16.0566 17.4002 15.9027 18.1259 15.7114 18.7976Z" fill="#E7E7E7"/>
<path d="M15.7761 6.09783L19.3536 2.51997C19.264 2.45045 19.1742 2.38129 19.0826 2.31421L15.9008 5.49605C15.9338 5.62186 15.7454 5.96898 15.7761 6.09783Z" fill="#E7E7E7"/>
<path d="M16.5194 9.96808H23.8254C23.766 9.6202 23.6937 9.27723 23.6052 8.94035H18.0269L21.837 5.13059C21.4625 4.59549 21.0462 4.09227 20.5914 3.62598L16.2998 7.91718C16.4154 8.69558 16.4671 9.14763 16.5194 9.96808Z" fill="#E7E7E7"/>
<path d="M15.2419 2.98891V0.446535C14.9052 0.352193 14.5624 0.27224 14.2141 0.207031V1.44716C14.5965 1.86172 14.9393 2.38242 15.2419 2.98891Z" fill="#E7E7E7"/>
<path d="M16.6006 14.7188C16.5339 15.4278 16.3016 15.9803 16.186 16.6491L20.2481 20.7113C20.65 20.3304 21.0257 19.923 21.3721 19.4905L17.4251 15.5432L16.6006 14.7188Z" fill="#D71F28"/>
<path d="M23.8241 9.96802H16.6131C16.7086 11.473 16.697 13.0207 16.5786 14.5154H23.7328C23.906 13.7039 23.9988 12.863 23.9988 12.0001C23.9988 11.307 23.937 10.6291 23.8241 9.96802Z" fill="#D71F28"/>
<path d="M16.3007 7.9169L20.592 3.6257C20.2056 3.22892 19.7914 2.85966 19.3533 2.51953L15.9814 5.89199C16.1313 6.51838 16.1994 7.23537 16.3007 7.9169Z" fill="#D71F28"/>
<path d="M15.2432 21.382C15.5677 20.7317 15.8461 19.9831 16.0791 19.1649L15.2432 18.329V21.382Z" fill="#29337A"/>
<path d="M16.1831 5.21404C15.9304 4.24695 15.6174 3.36778 15.2432 2.61841V6.15361L16.1831 5.21404Z" fill="#29337A"/>
<path d="M12.0011 24C11.8016 24 11.6023 23.9945 11.4027 23.9849C11.6012 23.9949 11.8005 24 12.0011 24Z" fill="#D32030"/>
<path d="M12 23.9998C12.7571 23.9998 13.4965 23.9265 14.2146 23.7921V22.4099C13.5842 23.0932 12.8468 23.9998 12 23.9998Z" fill="#D32030"/>
<path d="M11.4023 0.0147948C11.6023 0.00511738 11.8016 0 12.0011 0C11.8004 0 11.6008 0.00511738 11.4023 0.0147948Z" fill="#D32030"/>
<path d="M14.2144 1.53643V0.207279C13.4965 0.0733154 12.7571 0 11.9998 0C12.8466 0 13.584 0.853387 14.2144 1.53643Z" fill="#D32030"/>
<path d="M16.8333 14.9514C16.847 14.8066 16.8593 14.6613 16.871 14.5154H16.3973L16.8333 14.9514Z" fill="white"/>
<path d="M14.2143 22.9234C14.5967 22.5088 14.9392 21.9881 15.242 21.3816V18.3286L16.078 19.1646C16.2697 18.4925 16.4306 17.7746 16.5606 17.0233L14.2143 14.6772L14.2143 22.9234Z" fill="white"/>
<path d="M15.2419 6.15356V2.61817C14.9391 2.01168 14.5965 1.49062 14.2141 1.07642V7.65838L16.2781 5.59445C16.247 5.46561 16.2144 5.3394 16.1818 5.21359L15.2419 6.15356Z" fill="white"/>
<path d="M14.2488 9.96803H16.9052C16.8531 9.14763 16.7701 8.34045 16.6547 7.56226L14.2488 9.96803Z" fill="white"/>
<path d="M14.2144 22.9234V14.6773L16.5605 17.0235C16.6759 16.3545 16.7667 15.6606 16.8331 14.9515L16.3971 14.5155H16.8708C16.9892 13.0207 17.0008 11.4731 16.9053 9.9681H14.2489L16.6547 7.56232C16.5533 6.88059 16.4279 6.22121 16.278 5.59461L14.2145 7.65854V1.07657C13.584 0.393329 12.8466 0 11.9998 0C11.8003 0 11.6009 0.00511738 11.4011 0.0147948C10.8108 0.0443337 10.232 0.11694 9.66698 0.228357V9.93268L3.38497 3.65082C2.99899 4.04911 2.63996 4.4735 2.31138 4.92201L6.32994 8.94057L7.35803 9.9683H0.1747C0.0621686 10.6292 0 11.3071 0 12.0002C0 12.8633 0.0932275 13.7039 0.266002 14.5155H9.63101L3.58961 20.5569C3.98522 20.9455 4.40642 21.3074 4.85229 21.6386L9.66683 16.824V23.7713C10.2318 23.8827 10.811 23.9553 11.4013 23.9849C11.6008 23.9945 11.8001 24 11.9996 24C12.8466 24 13.584 23.6067 14.2144 22.9234Z" fill="#E51D35"/>
</g>
<defs>
<clipPath id="clip0_41_2068">
<rect width="24" height="24" fill="white"/>
</clipPath>
</defs>
</svg>
